Coordinates
version=1
nRows=14
nColumns=24
inDegrees=yes

Units are S.I. units (second, meters, Newtons, ...)
Angles are in degrees.

endheader
time	pelvis_tilt	pelvis_list	pelvis_rotation	pelvis_tx	pelvis_ty	pelvis_tz	hip_flexion_r	hip_adduction_r	hip_rotation_r	knee_angle_r	ankle_angle_r	subtalar_angle_r	mtp_angle_r	hip_flexion_l	hip_adduction_l	hip_rotation_l	knee_angle_l	ankle_angle_l	subtalar_angle_l	mtp_angle_l	lumbar_extension	lumbar_bending	lumbar_rotation
      2.00000000	     58.02023931	      3.94576652	     -4.01503851	      0.77559491	      1.02410039	     -0.28044867	     15.49016148	     -6.41060851	      8.98022273	     -3.16313128	     -9.18301294	    -17.44122871	    -19.62122288	      4.72873692	     -5.03859292	    -14.68926459	    -61.61541583	      2.36694947	     -7.46519660	    -43.68683746	      0.00000000	      0.00000000	      0.00000000
      2.01000000	     58.02181294	      3.94045631	     -4.01262108	      0.77560237	      1.02410373	     -0.28043558	     15.48153641	     -6.41577918	      9.00305636	     -3.18110647	     -9.12066802	    -17.38401506	    -19.59318523	      4.72304154	     -5.04657262	    -14.68306457	    -61.61520526	      2.35182355	     -7.46962757	    -43.82593856	      0.00000000	      0.00000000	      0.00000000
      2.02000000	     58.02207030	      3.93870845	     -4.01026379	      0.77561055	      1.02411890	     -0.28043115	     15.47776785	     -6.41871781	      9.01728949	     -3.19777249	     -9.07191438	    -17.33174449	    -19.57263796	      4.71794239	     -5.05057681	    -14.67727403	    -61.61338659	      2.33617855	     -7.47309110	    -43.96669818	      0.00000000	      0.00000000	      0.00000000
      2.03000000	     58.01983639	      3.94055574	     -4.00911772	      0.77561618	      1.02413942	     -0.28042704	     15.48025206	     -6.42043170	      9.02277153	     -3.21415065	     -9.03942311	    -17.28658628	    -19.56291045	      4.71480878	     -5.04992765	    -14.67242337	    -61.61056184	      2.32134777	     -7.47555501	    -44.09875709	      0.00000000	      0.00000000	      0.00000000
      2.04000000	     58.01388706	      3.94594588	     -4.00985632	      0.77562117	      1.02415372	     -0.28042115	     15.48915218	     -6.42311003	      9.02229260	     -3.23093037	     -9.02306895	    -17.24974348	    -19.56578246	      4.71555313	     -5.04463967	    -14.66875683	    -61.60709167	      2.30873104	     -7.47722956	    -44.21246082	      0.00000000	      0.00000000	      0.00000000
      2.05000000	     58.00356699	      3.95503981	     -4.01234036	      0.77563016	      1.02415358	     -0.28041980	     15.50404051	     -6.42857202	      9.02020874	     -3.24778206	     -9.02017483	    -17.22153614	    -19.58121797	      4.72161149	     -5.03498870	    -14.66634337	    -61.60303786	      2.29953792	     -7.47838059	    -44.29970882	      0.00000000	      0.00000000	      0.00000000
      2.06000000	     57.98898068	      3.96748014	     -4.01577476	      0.77564341	      1.02414136	     -0.28042854	     15.52426062	     -6.43768883	      9.02070792	     -3.26335532	     -9.02627725	    -17.20156986	    -19.60742163	      4.73296248	     -5.02132272	    -14.66517816	    -61.59827206	      2.29451049	     -7.47910551	    -44.35463175	      0.00000000	      0.00000000	      0.00000000
      2.07000000	     57.97095246	      3.98195689	     -4.01925310	      0.77565843	      1.02413167	     -0.28044762	     15.54848682	     -6.45026283	      9.02652321	     -3.27607629	     -9.03626983	    -17.18879328	    -19.64121287	      4.74785602	     -5.00441136	    -14.66517951	    -61.59263493	      2.29378098	     -7.47918901	    -44.37404440	      0.00000000	      0.00000000	      0.00000000
      2.08000000	     57.95102440	      3.99664614	     -4.02235358	      0.77567810	      1.02413901	     -0.28047526	     15.57395220	     -6.46488068	      9.03848201	     -3.28523105	     -9.04562773	    -17.18148546	    -19.67860742	      4.76323585	     -4.98590093	    -14.66616689	    -61.58619784	      2.29692015	     -7.47810111	    -44.35764245	      0.00000000	      0.00000000	      0.00000000
      2.09000000	     57.93183052	      4.00975989	     -4.02543383	      0.77570698	      1.02416552	     -0.28050721	     15.59663496	     -6.47908494	      9.05578477	     -3.29137968	     -9.05130474	    -17.17740738	    -19.71543781	      4.77549822	     -4.96833306	    -14.66789949	    -61.57954721	      2.30312362	     -7.47513149	    -44.30793236	      0.00000000	      0.00000000	      0.00000000
      2.10000000	     57.91726843	      4.01975619	     -4.02946482	      0.77573753	      1.02419976	     -0.28053389	     15.61255099	     -6.49002351	      9.07663567	     -3.29582666	     -9.05209331	    -17.17425444	    -19.74789063	      4.78129437	     -4.95459647	    -14.67013293	    -61.57381599	      2.31141675	     -7.46959538	    -44.22990182	      0.00000000	      0.00000000	      0.00000000
      2.11000000	     57.91147670	      4.02541784	     -4.03545085	      0.77575433	      1.02422416	     -0.28054458	     15.61902492	     -6.49529903	      9.09886364	     -3.29974697	     -9.04852943	    -17.17034503	    -19.77290949	      4.77821779	     -4.94704624	    -14.67265389	    -61.57034899	      2.32079958	     -7.46105098	    -44.13046295	      0.00000000	      0.00000000	      0.00000000
      2.12000000	     57.91695221	      4.02590274	     -4.04375044	      0.77575188	      1.02423014	     -0.28053463	     15.61521027	     -6.49372913	      9.12030388	     -3.30355775	     -9.04252825	    -17.16536475	    -19.78844893	      4.76534329	     -4.94677712	    -14.67530032	    -61.57014459	      2.33035245	     -7.44949747	    -44.01773426	      0.00000000	      0.00000000	      0.00000000
      2.13000000	     57.93312792	      4.02092344	     -4.05380277	      0.77573295	      1.02422329	     -0.28050850	     15.60193596	     -6.48566328	      9.13885053	     -3.30674072	     -9.03690655	    -17.16092269	    -19.79358834	      4.74349669	     -4.95349301	    -14.67794821	    -61.57333594	      2.33929656	     -7.43549068	    -43.90024566	      0.00000000	      0.00000000	      0.00000000
